<?xml version="1.0" encoding="UTF-8" standalone="no"?>
<svg version="1.1" width="1629" height="443" viewBox="0 0 1629 443" xmlns="http://www.w3.org/2000/svg">
  <g id="rowing_pro_logo">
    <!-- R -->
    <path d="m 644.24,218.51 c 4.16,-15.55 8.03,-29.35 11.47,-43.26 1.22,-4.95 2.85,-7.84 8.76,-7.15 5.44,0.63 11.02,0.13 17.72,0.13 -2.86,10.02 -5.47,19.29 -8.17,28.53 -3.96,13.6 -8.07,27.17 -11.95,40.81 -2.02,7.1 -5.38,12.88 -13.38,13.87 -7.95,0.98 -12.86,-3.66 -16.46,-10.07 -8.34,-14.87 -16.64,-29.77 -25.42,-45.48 -5.71,10.31 -11.12,20.1 -16.56,29.88 -3.24,5.81 -6.46,11.63 -9.83,17.36 -3.42,5.82 -8.46,9.22 -15.4,8.29 -6.94,-0.91 -10.79,-5.42 -12.67,-12.02 -6.36,-22.35 -12.84,-44.68 -19.28,-67.02 -0.3,-1.04 -0.56,-2.08 -1.11,-4.14 7.72,0 14.92,-0.28 22.08,0.22 1.56,0.1 3.75,2.77 4.27,4.65 4.08,14.49 7.82,29.07 12.01,44.92 1.42,-2.42 2.5,-4.11 3.44,-5.87 6.46,-12.13 12.96,-24.25 19.32,-36.45 3.07,-5.89 7.66,-8.89 14.39,-8.81 6.71,0.07 11.3,3.2 14.35,9.03 7.18,13.71 14.42,27.39 22.42,42.58" fill="#000000"/>
    <!-- O -->
    <path d="m 950.72,168.23 c -5.48,7.16 -9.72,13.11 -14.48,18.63 -1.31,1.51 -4.13,2.38 -6.27,2.42 -12.2,0.22 -24.42,-0.05 -36.62,0.19 -3.91,0.08 -7.97,0.79 -11.67,2.05 -9.02,3.07 -14.05,10.5 -13.57,19.11 0.47,8.46 6.5,16.36 15.78,17.16 12.68,1.09 25.53,0.27 38.79,0.27 v -10.62 h -41.93 c 5.39,-6.48 9.65,-11.71 14.09,-16.79 0.76,-0.87 2.26,-1.55 3.43,-1.55 16.36,-0.1 32.73,-0.06 49.45,-0.06 v 50.51 c -1.16,0.24 -2.01,0.56 -2.85,0.56 -20.63,-0.22 -41.34,0.55 -61.87,-1.03 -17.66,-1.37 -31.64,-10.5 -37.84,-28.06 -7.81,-22.13 5.15,-44.26 29.14,-50.21 6.18,-1.53 12.67,-2.35 19.04,-2.46 18.58,-0.31 37.17,-0.11 57.39,-0.11" fill="#000000"/>
    <!-- W -->
    <path d="m 1300.29,231.04 c 6.97,-0.87 13.9,-1.19 20.56,-2.69 10.47,-2.36 14.41,-8.9 13.71,-21 -0.62,-10.82 -5.66,-17.23 -15.96,-17.82 -12.56,-0.72 -25.24,-0.69 -37.81,0.05 -9.79,0.58 -14.86,6.89 -15.48,16.79 -0.82,12.95 2.86,19.58 13.31,21.9 7.09,1.57 14.46,1.89 21.68,2.77 m 1.02,-65.31 c 10.56,2.05 22.56,3.32 33.86,6.84 16.14,5.03 24.23,17.68 24.56,34.92 0.36,19.26 -6.64,31.82 -23.17,37.92 -24.11,8.9 -48.81,8.81 -72.96,0.25 -17.54,-6.22 -24.5,-19.6 -23.43,-40.99 0.84,-16.89 10.88,-29.28 28.86,-33.78 10.03,-2.51 20.49,-3.34 32.28,-5.17" fill="#000000"/>
    <!-- I -->
    <path d="m 470.04,231.05 c 7.03,-0.89 14.17,-1.25 21.04,-2.79 10.65,-2.38 13.88,-7.94 13.42,-20.99 -0.37,-10.44 -4.66,-16.77 -14.53,-17.5 -13.19,-0.97 -26.57,-0.94 -39.77,-0.008 -9.91,0.7 -14.32,7.17 -14.8,18.06 -0.51,11.96 3.23,18.17 13.47,20.44 6.87,1.52 14.01,1.89 21.16,2.79 m 3.2,20.82 c -16.68,-0.66 -30.18,-1.48 -42.7,-7.44 -12.02,-5.72 -18.77,-15.33 -19.75,-28.59 -2.08,-28.26 8.81,-42.25 37.58,-47.17 17.16,-2.93 34.44,-2.63 51.47,1.88 26.75,7.08 38.77,35.36 25.26,59.62 -6.39,11.47 -17.28,16.29 -29.23,18.82 -8.41,1.77 -17.11,2.21 -22.63,2.88" fill="#000000"/>
    <!-- N -->
    <path d="m 1120.54,208.38 h 7.38 c 20.43,0 40.86,0.03 61.29,-0.07 3.04,-0.01 6.16,-0.51 9.12,-1.27 4.28,-1.09 7.84,-4.16 6.61,-8.47 -0.9,-3.18 -4.37,-6.14 -7.42,-8.04 -2.18,-1.36 -5.57,-1.05 -8.42,-1.06 -19.98,-0.07 -39.97,-0.03 -59.96,-0.03 -2.37,0 -4.74,0 -8.89,0 5.78,-7.41 10.54,-13.65 15.5,-19.74 0.69,-0.85 2.3,-1.38 3.48,-1.37 21.07,0.31 42.15,0.53 63.2,1.31 4.48,0.16 9.13,1.97 13.29,3.92 10.39,4.88 15.81,13.09 15.32,24.92 -0.53,13.01 -7.55,20.79 -20.13,25.07 8.21,8.57 16.19,16.9 25.44,26.55 -11.98,0 -22.1,0.18 -32.2,-0.18 -1.72,-0.06 -3.96,-2.16 -4.93,-3.9 -8.6,-15.46 -21.69,-20.61 -38.75,-17.86 -4.7,0.75 -9.63,0.11 -15.15,0.11 v 21.52 h -24.77 z" fill="#000000"/>
    <!-- BLUE LOGO PARTS -->
    <path d="m 378.74,224.2 c 9.25,8.26 17.46,15.58 25.66,22.91 -0.38,0.63 -0.76,1.27 -1.15,1.91 -9.64,0 -19.29,0.23 -28.91,-0.2 -1.88,-0.08 -4.21,-2.46 -5.36,-4.37 -8.41,-13.97 -20.32,-19.75 -36.57,-16.95 -5.38,0.92 -12.51,-1.23 -15.98,1.56 -2.82,2.27 -1.61,9.84 -1.75,15.08 -0.09,3.68 -1.46,5.2 -5.16,5.1 -5.75,-0.15 -11.51,-0.04 -17.83,-0.04 v -37.14 c 2.66,-0.15 5.23,-0.42 7.81,-0.43 19.1,-0.04 38.2,0.13 57.3,-0.15 4.77,-0.07 9.84,-0.86 14.15,-2.75 2.41,-1.06 4.88,-5.06 4.86,-7.72 -0.02,-2.62 -2.62,-6.11 -5.07,-7.59 -2.81,-1.7 -6.71,-2.18 -10.14,-2.21 -20.21,-0.18 -40.42,-0.08 -60.64,-0.07 h -8.25 c 5.33,-6.87 9.62,-12.65 14.24,-18.14 0.92,-1.1 3.13,-1.6 4.74,-1.59 19.53,0.11 39.08,0.08 58.61,0.79 5.59,0.2 11.42,1.94 16.57,4.27 9.38,4.24 14.85,11.84 14.93,22.48 0.07,10.62 -4.2,18.89 -13.98,23.82 -1.93,0.97 -3.94,1.81 -8.05,3.69" fill="#2B66A3"/>
    <path d="m 756.15,249.76 h -22.86 v -25.58 c 0,-13.53 0.03,-27.07 -0.04,-40.61 -0.02,-6.3 1.1,-12.16 7.42,-15.13 6.68,-3.14 12.32,-0.88 17.56,3.89 13.75,12.56 27.68,24.93 41.56,37.37 1.93,1.73 3.95,3.36 7.22,6.14 v -47.15 h 22.94 c 0.14,2.14 0.39,4.06 0.4,5.99 0.02,19.97 -0.03,39.94 0.04,59.92 0.02,6.59 -1.17,12.53 -7.78,15.6 -6.77,3.15 -12.25,0.63 -17.46,-4.13 -14.06,-12.88 -28.35,-25.53 -42.57,-38.25 -1.75,-1.56 -3.61,-3.01 -6.47,-5.39" fill="#000000"/>
    <path d="m 1024.18,229.25 v 20.45 h -24.68 v -41.3 h 7.21 c 19.98,0 39.97,0.01 59.95,-0.03 2.65,0 5.41,0.06 7.92,-0.63 4.37,-1.22 8.27,-4.15 6.99,-8.95 -0.86,-3.22 -4.06,-6.28 -6.97,-8.35 -1.87,-1.33 -5.12,-0.96 -7.75,-0.96 -21.94,-0.06 -43.87,-0.03 -67.54,-0.03 5.91,-7.43 10.78,-13.85 16.06,-19.91 1.0,-1.15 3.65,-1.21 5.54,-1.22 15.98,-0.08 31.98,-0.26 47.96,0.1 5.69,0.13 11.54,1.12 16.99,2.77 13.98,4.24 22.61,16.3 21.65,29.24 -1.05,14.16 -11.06,24.99 -26.54,27.25 -9.16,1.34 -18.55,1.3 -27.84,1.54 -9.3,0.23 -18.62,0.05 -28.95,0.05" fill="#000000"/>
    <path d="m 94.71,206.01 c 47.64,-18.41 94.98,-37.64 147.12,-42.37 v 42.37 z" fill="#2B66A3"/>
    <path d="m 1549.76,206.49 c -28.82,0 -57.65,-0.003 -86.48,0.001 -17.97,0.003 -35.94,-0.1 -53.91,0.1 -4.62,0.05 -6.24,-1.46 -6.13,-6.12 0.25,-11.7 0.08,-23.42 0.08,-36.82 9.17,1.18 17.42,1.83 25.5,3.37 41.88,7.97 81.56,22.93 120.95,39.47" fill="#2B66A3"/>
    <path d="M 94.17,209.8 H 241.72 v 42.22 c -9.32,-1.09 -18.67,-1.84 -27.9,-3.35 -23.74,-3.88 -96.37,-27.6 -119.64,-38.86" fill="#2B66A3"/>
    <path d="m 1549.82,210.8 c -13.18,4.88 -26.16,10.46 -39.61,14.5 -28.3,8.52 -56.71,16.82 -85.36,24.09 -21.34,5.42 -21.54,4.64 -21.52,-16.67 0,-5.54 0.3,-11.11 -0.08,-16.62 -0.37,-5.35 1.75,-6.76 6.89,-6.72 28.83,0.21 57.67,0.11 86.5,0.11 17.62,0 35.25,0 52.87,0 0.1,0.43 0.2,0.87 0.3,1.3" fill="#2B66A3"/>
    <path d="m 717.15,249.69 h -24.52 v -80.83 h 24.52 z" fill="#000000"/>
    
    <!-- OARS (Blades) -->
    <path d="m 590.38,89.34 c 4.4,6.75 2.58,12.49 -2.07,17.2 -9.16,9.27 -20.61,14.38 -33.52,15.64 -5.71,0.55 -10.68,-1.74 -13.94,-7.66 16.56,-8.42 32.97,-16.76 49.53,-25.18" fill="#000000"/>
    <path d="m 1187.83,89.34 c 4.4,6.75 2.58,12.49 -2.07,17.2 -9.16,9.27 -20.61,14.38 -33.52,15.64 -5.71,0.55 -10.68,-1.74 -13.94,-7.66 16.56,-8.42 32.97,-16.76 49.53,-25.18" fill="#000000"/>
    <path d="m 988.93,89.34 c 4.4,6.75 2.58,12.49 -2.07,17.2 -9.16,9.27 -20.61,14.38 -33.52,15.64 -5.71,0.55 -10.68,-1.74 -13.94,-7.66 16.56,-8.42 32.97,-16.76 49.53,-25.18" fill="#000000"/>
    <path d="m 789.4,89.34 c 4.4,6.75 2.58,12.49 -2.07,17.2 -9.16,9.27 -20.61,14.38 -33.52,15.64 -5.71,0.55 -10.68,-1.74 -13.94,-7.66 16.56,-8.42 32.97,-16.76 49.53,-25.18" fill="#000000"/>
    <path d="m 672.4,326.65 c 4.4,-6.75 2.58,-12.49 -2.07,-17.2 -9.16,-9.27 -20.61,-14.38 -33.52,-15.64 -5.71,-0.55 -10.68,1.74 -13.94,7.66 16.56,8.42 32.97,16.76 49.53,25.18" fill="#000000"/>
    <path d="m 1269.86,326.65 c 4.4,-6.75 2.58,-12.49 -2.07,-17.2 -9.16,-9.27 -20.61,-14.38 -33.52,-15.64 -5.71,-0.55 -10.68,1.74 -13.94,7.66 16.56,8.42 32.97,16.76 49.53,25.18" fill="#000000"/>
    <path d="m 1070.95,326.65 c 4.4,-6.75 2.58,-12.49 -2.07,-17.2 -9.16,-9.27 -20.61,-14.38 -33.52,-15.64 -5.71,-0.55 -10.68,1.74 -13.94,7.66 16.56,8.42 32.97,16.76 49.53,25.18" fill="#000000"/>
    <path d="m 871.42,326.65 c 4.4,-6.75 2.58,-12.49 -2.07,-17.2 -9.16,-9.27 -20.61,-14.38 -33.52,-15.64 -5.71,-0.55 -10.68,1.74 -13.94,7.66 16.56,8.42 32.97,16.76 49.53,25.18" fill="#000000"/>

    <!-- OARS (Shafts) - 두께를 1.5로 보정 -->
    <path d="M 479.55,146.22 590.38,89.34" stroke="#000000" stroke-width="1.5" fill="none"/>
    <path d="M 1077.01,146.22 1187.83,89.34" stroke="#000000" stroke-width="1.5" fill="none"/>
    <path d="M 878.1,146.22 988.93,89.34" stroke="#000000" stroke-width="1.5" fill="none"/>
    <path d="M 678.57,146.22 789.4,89.34" stroke="#000000" stroke-width="1.5" fill="none"/>
    <path d="m 561.57,269.77 110.82,56.87" stroke="#000000" stroke-width="1.5" fill="none"/>
    <path d="m 1159.03,269.77 110.82,56.87" stroke="#000000" stroke-width="1.5" fill="none"/>
    <path d="m 960.13,269.77 110.82,56.87" stroke="#000000" stroke-width="1.5" fill="none"/>
    <path d="m 760.6,269.77 110.82,56.87" stroke="#000000" stroke-width="1.5" fill="none"/>
  </g>
</svg>